<svg width="0" height="0" class="hidden">
  <symbol id="chevron" xmlns="http://www.w3.org/2000/svg" viewBox="0 0 51 51">
    <defs></defs>
    <circle cx="25.5" cy="25.5" r="25.5"></circle>
    <rect x="24.4" y="27.9" width="1.6" height="15.24" rx="0.8" transform="matrix(0.78, -0.63, 0.63, 0.78, -21.26, 15.39)"></rect>
    <rect x="33.3" y="27.9" width="1.6" height="15.24" rx="0.8" transform="translate(24 -21.9) rotate(37.3)"></rect>
  </symbol>
  <symbol xmlns="http://www.w3.org/2000/svg" viewBox="0 0 50 2" id="line">
    <path fill="#63c3ef" d="M0 0h50v2H0z"></path>
  </symbol>
  <symbol  xmlns="http://www.w3.org/2000/svg" viewBox="0 0 64 64" id="no-hidden-fees">
    <path d="M 25 0 C 11.215 0 0 11.215 0 25 C 0 38.785 11.215 50 25 50 C 30.514 50 35.613953 48.202016 39.751953 45.166016 C 39.751953 45.166016 42.529063 47.885594 42.664062 47.933594 C 42.647062 49.235594 43.129094 50.543156 44.121094 51.535156 L 54.464844 61.878906 C 55.408844 62.823906 56.664 63.34375 58 63.34375 C 59.335 63.34375 60.591156 62.822906 61.535156 61.878906 L 61.878906 61.535156 C 63.827906 59.585156 63.828906 56.414844 61.878906 54.464844 L 51.535156 44.121094 C 50.591156 43.176094 49.335 42.65625 48 42.65625 C 47.978 42.65625 47.956594 42.662109 47.933594 42.662109 C 47.885594 42.527109 45.166016 39.751953 45.166016 39.751953 C 48.202016 35.613953 50 30.514 50 25 C 50 11.215 38.785 0 25 0 z M 25 2 C 37.682 2 48 12.318 48 25 C 48 37.682 37.682 48 25 48 C 12.318 48 2 37.682 2 25 C 2 12.318 12.318 2 25 2 z M 25 6 C 14.523 6 6 14.523 6 25 C 6 25.552 6.448 26 7 26 C 7.552 26 8 25.552 8 25 C 8 15.626 15.626 8 25 8 C 29.328 8 33.270391 9.6385469 36.275391 12.310547 L 24.585938 24 L 24 24 C 22.346 24 21 22.654 21 21 L 21 19 C 21 17.346 22.346 16 24 16 L 24 21 C 24 21.552 24.448 22 25 22 C 25.552 22 26 21.552 26 21 L 26 16 C 26.842 16 27.621313 16.338078 28.195312 16.955078 C 28.572312 17.360078 29.204375 17.381859 29.609375 17.005859 C 30.013375 16.629859 30.037156 15.996797 29.660156 15.591797 C 28.716156 14.580797 27.383 14 26 14 L 26 12 C 26 11.448 25.552 11 25 11 C 24.448 11 24 11.448 24 12 L 24 14 C 21.243 14 19 16.243 19 19 L 19 21 C 19 23.326 20.604766 25.270172 22.759766 25.826172 L 12.980469 35.605469 L 12.978516 35.607422 L 11.564453 37.021484 C 11.173453 37.412484 11.173453 38.045547 11.564453 38.435547 C 11.759453 38.630547 12.015484 38.728516 12.271484 38.728516 C 12.527484 38.728516 12.783516 38.630547 12.978516 38.435547 L 13.705078 37.707031 L 25.414062 26 L 26 26 C 27.654 26 29 27.346 29 29 L 29 31 C 29 32.654 27.654 34 26 34 L 24 34 C 23.129 34 22.301469 33.621891 21.730469 32.962891 C 21.369469 32.545891 20.738312 32.499328 20.320312 32.861328 C 19.903312 33.223328 19.85675 33.855437 20.21875 34.273438 C 21.17075 35.370437 22.549 36 24 36 L 24 38 C 24 38.552 24.448 39 25 39 C 25.552 39 26 38.552 26 38 L 26 36 C 28.757 36 31 33.757 31 31 L 31 29 C 31 26.674 29.395234 24.729828 27.240234 24.173828 L 37.689453 13.724609 C 40.361453 16.729609 42 20.672 42 25 C 42 34.374 34.374 42 25 42 C 24.448 42 24 42.448 24 43 C 24 43.552 24.448 44 25 44 C 35.477 44 44 35.477 44 25 C 44 19.781 41.882844 15.048328 38.464844 11.611328 C 38.451844 11.597328 38.448547 11.578453 38.435547 11.564453 C 38.422547 11.550453 38.402672 11.547156 38.388672 11.535156 C 34.951672 8.1171562 30.219 6 25 6 z M 25 28 C 24.448 28 24 28.448 24 29 L 24 31 C 24 31.552 24.448 32 25 32 C 25.552 32 26 31.552 26 31 L 26 29 C 26 28.448 25.552 28 25 28 z M 9.6816406 28.148438 C 9.5529844 28.130688 9.4184063 28.139031 9.2851562 28.175781 L 7.3535156 28.693359 C 6.8195156 28.836359 6.5034844 29.383969 6.6464844 29.917969 C 6.7664844 30.364969 7.1693281 30.660156 7.6113281 30.660156 C 7.6963281 30.660156 7.7850937 30.649 7.8710938 30.625 L 9.8027344 30.107422 C 10.336734 29.964422 10.654719 29.416813 10.511719 28.882812 C 10.404469 28.483062 10.067609 28.201687 9.6816406 28.148438 z M 11.019531 32.007812 C 10.890703 32.023906 10.764031 32.065516 10.644531 32.134766 L 8.9121094 33.134766 C 8.4331094 33.410766 8.2689219 34.021 8.5449219 34.5 C 8.7299219 34.821 9.0661094 35 9.4121094 35 C 9.5811094 35 9.7521563 34.956234 9.9101562 34.865234 L 11.642578 33.865234 C 12.121578 33.589234 12.285766 32.979 12.009766 32.5 C 11.802016 32.14075 11.406016 31.959531 11.019531 32.007812 z M 17.123047 37.863281 C 16.736328 37.815375 16.341766 37.996969 16.134766 38.355469 L 15.134766 40.087891 C 14.858766 40.565891 15.022 41.177125 15.5 41.453125 C 15.657 41.544125 15.829047 41.587891 15.998047 41.587891 C 16.344047 41.587891 16.680234 41.408891 16.865234 41.087891 L 17.865234 39.355469 C 18.141234 38.877469 17.979 38.267234 17.5 37.990234 C 17.3805 37.921234 17.251953 37.87925 17.123047 37.863281 z M 20.722656 39.464844 C 20.336688 39.518656 19.999828 39.795562 19.892578 40.195312 L 19.375 42.128906 C 19.232 42.661906 19.548031 43.210516 20.082031 43.353516 C 20.168031 43.376516 20.256797 43.388672 20.341797 43.388672 C 20.782797 43.388672 21.187641 43.093484 21.306641 42.646484 L 21.824219 40.714844 C 21.968219 40.180844 21.650187 39.631281 21.117188 39.488281 C 20.983937 39.452531 20.851312 39.446906 20.722656 39.464844 z M 43.910156 41.324219 L 45.78125 43.195312 C 45.30325 43.433312 44.853844 43.730141 44.464844 44.119141 L 44.121094 44.464844 C 43.727094 44.858844 43.434219 45.311156 43.199219 45.785156 L 41.324219 43.910156 C 42.248219 43.112156 43.112156 42.248219 43.910156 41.324219 z M 48.001953 44.65625 C 48.802953 44.65625 49.554094 44.968156 50.121094 45.535156 L 60.464844 55.878906 C 61.632844 57.047906 61.633844 58.951094 60.464844 60.121094 L 60.121094 60.464844 C 58.987094 61.598844 57.012906 61.597844 55.878906 60.464844 L 45.535156 50.121094 C 44.366156 48.951094 44.366156 47.048906 45.535156 45.878906 L 45.878906 45.535156 C 46.445906 44.968156 47.199953 44.65625 48.001953 44.65625 z"></path>
  </symbol>
  <symbol fill="#000000" xmlns="http://www.w3.org/2000/svg" viewBox="0 0 480 480" id="save-money">
    <path d="M 167.39258 0 C 162.97458 0 159.39258 3.582 159.39258 8 L 159.39258 74 C 159.39258 78.418 162.97358 82 167.39258 82 C 171.81058 82 175.39258 78.418 175.39258 74 L 175.39258 8 C 175.39258 3.582 171.81058 0 167.39258 0 z M 329.39258 0 C 324.97458 0 321.39258 3.582 321.39258 8 L 321.39258 74 C 321.39258 78.418 324.97358 82 329.39258 82 C 333.81058 82 337.39258 78.418 337.39258 74 L 337.39258 8 C 337.39258 3.582 333.81058 0 329.39258 0 z M 275.39258 8 C 270.97458 8 267.39258 11.582 267.39258 16 L 267.39258 47 C 267.39258 51.418 270.97358 55 275.39258 55 C 279.81058 55 283.39258 51.418 283.39258 47 L 283.39258 16 C 283.39258 11.582 279.81058 8 275.39258 8 z M 221.39258 18 C 216.97458 18 213.39258 21.582 213.39258 26 L 213.39258 47 C 213.39258 51.418 216.97358 55 221.39258 55 C 225.81058 55 229.39258 51.418 229.39258 47 L 229.39258 26 C 229.39258 21.582 225.81058 18 221.39258 18 z M 248.39258 66.003906 C 207.73558 66.003906 174.2632 93.059344 163.2832 128.90234 C 161.9892 133.12734 164.36484 137.60053 168.58984 138.89453 C 172.81484 140.18953 177.28708 137.81484 178.58008 133.58984 C 188.03108 102.73184 216.08758 82 248.39258 82 C 288.64458 82 321.39258 114.748 321.39258 155 C 321.39258 195.252 288.64458 228 248.39258 228 C 217.93258 228 190.39414 208.80438 179.86914 180.23438 C 178.71514 177.09637 175.68028 175 172.36328 175 L 164.78125 175 C 143.80925 175 124.51141 178.80803 107.31641 186.33203 C 101.33941 180.58203 94.420641 176.02323 86.681641 172.74023 C 68.213641 164.90723 48.929547 182.03138 54.310547 201.35938 C 56.358547 208.71738 58.1635 216.2657 59.6875 223.8457 C 49.9625 236.6907 42.545422 251.788 37.982422 268 L 32.392578 268 C 19.158578 268 8.3925781 278.766 8.3925781 292 L 8.3925781 327 C 8.3925781 340.234 19.158578 351 32.392578 351 L 39.078125 351 C 47.775125 378.06 64.464547 400.91681 86.685547 416.13281 L 93.904297 457.49219 C 96.180297 470.53419 107.44359 480 120.68359 480 L 169.97461 480 C 183.46861 480 194.76594 470.32228 196.83594 456.98828 L 199.7832 438 L 252.43359 438 L 255.38281 456.98828 C 257.45281 470.32228 268.74819 480 282.24219 480 L 331.15625 480 C 344.41225 480 355.67841 470.51903 357.94141 457.45703 L 364.81641 417.78711 C 396.54441 397.38911 417.18211 362.26016 421.41211 321.91016 C 428.70711 325.44716 436.6298 327.25106 444.0918 323.91406 C 453.8618 319.54606 456.80916 309.18878 459.41016 300.05078 C 461.22716 293.66478 463.10708 287.06092 466.58008 285.66992 C 470.68208 284.02692 472.6752 279.37053 471.0332 275.26953 C 469.3892 271.16753 464.73481 269.17241 460.63281 270.81641 C 449.86981 275.12641 446.62748 286.51887 444.02148 295.67188 C 442.37848 301.44488 440.51655 307.98659 437.56055 309.30859 C 436.46455 309.79759 432.30498 310.7042 422.20898 303.9082 C 421.50498 260.5932 402.11266 221.56064 369.34766 198.30664 C 365.74466 195.74964 360.74936 196.59522 358.19336 200.19922 C 355.63636 203.80222 356.48489 208.79652 360.08789 211.35352 C 424.29989 256.92652 421.02745 365.57148 353.43945 406.02148 C 351.44045 407.21748 350.06206 409.22453 349.66406 411.51953 L 342.17773 454.72852 C 341.24673 460.10252 336.61025 464.00195 331.15625 464.00195 L 282.24219 464.00195 C 276.69119 464.00195 272.04341 460.0192 271.19141 454.5332 L 267.19141 428.77344 C 266.58641 424.87644 263.23111 422.00195 259.28711 422.00195 L 192.92969 422.00195 C 188.98569 422.00195 185.63039 424.87644 185.02539 428.77344 L 181.02539 454.5332 C 180.17339 460.0192 175.52561 464.00195 169.97461 464.00195 L 120.68359 464.00195 C 115.23659 464.00195 110.60202 460.10719 109.66602 454.74219 L 101.85352 409.99023 C 101.46852 407.78223 100.17316 405.83791 98.285156 404.62891 C 76.294156 390.55091 60.128672 367.91744 52.763672 340.89844 C 51.814672 337.41744 48.654875 335.00391 45.046875 335.00391 L 32.392578 335.00391 C 27.981578 335.00391 24.392578 331.41491 24.392578 327.00391 L 24.392578 292.00391 C 24.392578 287.59291 27.981578 284.00391 32.392578 284.00391 L 44.185547 284.00391 C 47.905547 284.00391 51.133563 281.43941 51.976562 277.81641 C 56.050562 260.31041 63.826891 244.09673 74.462891 230.92773 C 75.937891 229.10173 76.535609 226.71811 76.099609 224.41211 C 74.356609 215.20411 72.212609 206.00727 69.724609 197.07227 C 67.922609 190.60127 74.320641 184.88361 80.431641 187.47461 C 87.808641 190.60361 94.210031 195.24358 99.457031 201.26758 C 101.84603 204.01158 105.78792 204.79669 109.04492 203.17969 C 127.60092 193.97269 146.44419 191.00391 166.99219 191.00391 C 181.13519 222.92091 213.15358 244.00391 248.39258 244.00391 C 297.46758 244.00391 337.39258 204.07891 337.39258 155.00391 C 337.39258 105.92891 297.46758 66.003906 248.39258 66.003906 z M 248.39258 103 C 217.59558 103 193.34422 129.78983 196.69922 160.67383 C 197.17522 165.06583 201.11762 168.23667 205.51562 167.76367 C 209.90863 167.28667 213.08247 163.33927 212.60547 158.94727 C 210.27947 137.46027 227.14158 119 248.39258 119 C 268.24358 119 284.39258 135.149 284.39258 155 C 284.39258 177.304 264.12689 194.50225 241.83789 190.40625 C 237.49389 189.60825 233.32144 192.48212 232.52344 196.82812 C 231.72544 201.17312 234.60127 205.34358 238.94727 206.14258 C 270.92827 212.01858 300.39258 187.406 300.39258 155 C 300.39258 126.327 277.06558 103 248.39258 103 z M 102.39258 250 C 97.974578 250 94.392578 253.582 94.392578 258 L 94.392578 267 C 94.392578 271.418 97.974578 275 102.39258 275 C 106.81058 275 110.39258 271.418 110.39258 267 L 110.39258 258 C 110.39258 253.582 106.81058 250 102.39258 250 z M 179.39258 266 C 174.97458 266 171.39258 269.582 171.39258 274 C 171.39258 278.418 174.97458 282 179.39258 282 L 317.39258 282 C 321.81058 282 325.39258 278.418 325.39258 274 C 325.39258 269.582 321.81058 266 317.39258 266 L 179.39258 266 z M 120.75586 306.5957 C 117.34774 306.48031 114.11497 308.57314 112.93359 311.96289 C 108.26759 325.35289 97.416094 335.50209 83.621094 339.24609 C 79.357094 340.40309 76.838094 344.79655 77.996094 349.06055 C 79.157094 353.33755 83.5605 355.8415 87.8125 354.6875 C 106.6765 349.5685 121.63097 335.62656 128.04297 317.22656 C 129.49697 313.05456 127.29114 308.49306 123.11914 307.03906 C 122.33708 306.76625 121.54235 306.62233 120.75586 306.5957 z"></path>
  </symbol>
  <symbol xmlns="http://www.w3.org/2000/svg" viewBox="0 0 24 24" id="quote">
    <path d="M22,4.5a.5.5,0,0,0,0-1A8.50951,8.50951,0,0,0,13.5,12v4a4.555,4.555,0,1,0,1-2.79352V12A7.5082,7.5082,0,0,1,22,4.5Zm-4,8A3.5,3.5,0,1,1,14.5,16,3.50424,3.50424,0,0,1,18,12.5Zm-8-8a.5.5,0,0,0,0-1A8.50951,8.50951,0,0,0,1.5,12v4a4.555,4.555,0,1,0,1-2.79352V12A7.5082,7.5082,0,0,1,10,4.5Zm-4,8A3.5,3.5,0,1,1,2.5,16,3.50424,3.50424,0,0,1,6,12.5Z"></path>
  </symbol>
  <symbol id="menu" enable-background="new 0 0 24 24" xmlns="http://www.w3.org/2000/svg" viewBox="0 0 24 24">
    <g>
      <path d="m21.5 24h-19c-1.379 0-2.5-1.122-2.5-2.5v-19c0-1.378 1.121-2.5 2.5-2.5h19c1.379 0 2.5 1.122 2.5 2.5v19c0 1.378-1.121 2.5-2.5 2.5zm-19-23c-.827 0-1.5.673-1.5 1.5v19c0 .827.673 1.5 1.5 1.5h19c.827 0 1.5-.673 1.5-1.5v-19c0-.827-.673-1.5-1.5-1.5z"></path>
    </g>
    <g>
      <path d="m16.5 8h-9c-.276 0-.5-.224-.5-.5s.224-.5.5-.5h9c.276 0 .5.224.5.5s-.224.5-.5.5z"></path>
    </g>
    <g>
      <path d="m16.5 12.5h-9c-.276 0-.5-.224-.5-.5s.224-.5.5-.5h9c.276 0 .5.224.5.5s-.224.5-.5.5z"></path>
    </g>
    <g>
      <path d="m16.5 17h-9c-.276 0-.5-.224-.5-.5s.224-.5.5-.5h9c.276 0 .5.224.5.5s-.224.5-.5.5z"></path>
    </g>
  </symbol>
  <symbol fill="#000000" xmlns="http://www.w3.org/2000/svg" viewBox="0 0 50 50" id="trust">
    <path d="M 26 1 C 21.59375 1 18 4.59375 18 9 C 18 10.855469 18.9375 12.664063 20.21875 14.4375 C 21.5 16.210938 23.15625 17.9375 24.8125 19.46875 C 28.125 22.527344 31.4375 24.8125 31.4375 24.8125 L 32 25.21875 L 32.5625 24.8125 C 32.5625 24.8125 35.878906 22.53125 39.1875 19.46875 C 40.84375 17.9375 42.5 16.207031 43.78125 14.4375 C 45.0625 12.667969 46 10.847656 46 9 C 46 4.59375 42.40625 1 38 1 C 35.578125 1 33.464844 2.136719 32 3.84375 C 30.535156 2.136719 28.421875 1 26 1 Z M 26 3 C 28.191406 3 30.105469 4.1875 31.15625 5.9375 L 32 7.34375 L 32.84375 5.9375 C 33.894531 4.1875 35.808594 3 38 3 C 41.324219 3 44 5.675781 44 9 C 44 10.117188 43.3125 11.648438 42.15625 13.25 C 41 14.851563 39.40625 16.523438 37.8125 18 C 34.90625 20.691406 32.496094 22.367188 32 22.71875 C 31.503906 22.367188 29.09375 20.683594 26.1875 18 C 24.59375 16.527344 23 14.882813 21.84375 13.28125 C 20.6875 11.679688 20 10.132813 20 9 C 20 5.675781 22.675781 3 26 3 Z M 46 26.03125 C 45.03125 26.089844 44.0625 26.53125 43.34375 27.25 L 33.5625 37 L 24.4375 37 L 24.03125 36.59375 L 29.875 35.4375 C 31.367188 35.140625 32.648438 34.007813 32.9375 32.4375 C 33.363281 30.105469 31.539063 28 29.25 28 L 15.3125 28 C 12.925781 28 10.625 28.9375 8.9375 30.625 L 0.28125 39.28125 L -0.40625 40 L 0.28125 40.71875 L 9.28125 49.71875 L 10 50.40625 L 10.71875 49.71875 L 14.125 46.28125 C 14.3125 46.09375 14.546875 46 14.8125 46 L 33.34375 46 C 34.667969 46 35.9375 45.46875 36.875 44.53125 L 48.875 32.53125 C 50.410156 30.996094 50.347656 28.433594 48.71875 26.96875 C 47.9375 26.265625 46.96875 25.972656 46 26.03125 Z M 46.09375 28.03125 C 46.570313 27.996094 47.050781 28.148438 47.40625 28.46875 C 48.207031 29.1875 48.214844 30.378906 47.46875 31.125 L 35.46875 43.125 C 34.90625 43.6875 34.140625 44 33.34375 44 L 14.8125 44 C 14.015625 44 13.28125 44.3125 12.71875 44.875 L 10 47.5625 L 2.4375 40 L 10.375 32.0625 C 11.6875 30.75 13.457031 30 15.3125 30 L 29.25 30 C 30.335938 30 31.179688 30.933594 30.96875 32.09375 C 30.84375 32.773438 30.21875 33.320313 29.46875 33.46875 L 21.8125 35.03125 L 19.96875 35.375 L 21.28125 36.71875 L 23.28125 38.71875 L 23.59375 39 L 34.40625 39 L 34.71875 38.71875 L 44.75 28.65625 C 45.113281 28.292969 45.617188 28.066406 46.09375 28.03125 Z"></path>
  </symbol>
</svg>